<svg width="49" height="48" viewBox="0 0 49 48" fill="none" xmlns="http://www.w3.org/2000/svg">
<path d="M24.5 42V24M24.5 14H16.4C10.86 14 10.52 6 16.4 6C22.7 6 24.5 14 24.5 14ZM24.5 14H32.6C38.392 14 38.392 6 32.6 6C26.3 6 24.5 14 24.5 14Z" stroke="#049854" stroke-width="3" stroke-linecap="round" stroke-linejoin="round"/>
<path d="M40.5 24V38C40.5 39.0609 40.0786 40.0783 39.3284 40.8284C38.5783 41.5786 37.5609 42 36.5 42H12.5C11.4391 42 10.4217 41.5786 9.67157 40.8284C8.92143 40.0783 8.5 39.0609 8.5 38V24M42.5 24V18C42.5 16.9391 42.0786 15.9217 41.3284 15.1716C40.5783 14.4214 39.5609 14 38.5 14H10.5C9.43913 14 8.42172 14.4214 7.67157 15.1716C6.92143 15.9217 6.5 16.9391 6.5 18V24H42.5Z" stroke="#049854" stroke-width="3" stroke-linecap="round" stroke-linejoin="round"/>
</svg>
